<svg  width="1080" height="1740" viewPort="0 0 1060 1720" version="1.1" xmlns="http://www.w3.org/2000/svg"><clipPath id="aceg"><rect x="135" y="0" width="135" height="1740"/><rect x="405" y="0" width="135" height="1740"/><rect x="675" y="0" width="135" height="1740"/><rect x="945" y="0" width="135" height="1740"/></clipPath><clipPath id="bdfh"><rect x="0" y="0" width="135" height="1740"/><rect x="270" y="0" width="135" height="1740"/><rect x="540" y="0" width="135" height="1740"/><rect x="810" y="0" width="135" height="1740"/><rect x="1080" y="0" width="135" height="1740"/></clipPath><ellipse cx="540" cy="870" rx="810" ry="870" fill="#000" /><ellipse cx="540" cy="870" rx="810" ry="870" fill="#fff" clip-path="url(#aceg)" /><ellipse cx="540" cy="870" rx="675" ry="725" fill="#000" /><ellipse cx="540" cy="870" rx="675" ry="725" fill="#FFF" clip-path="url(#bdfh)" /><ellipse cx="540" cy="870" rx="540" ry="580" fill="#000" /><ellipse cx="540" cy="870" rx="540" ry="580" fill="#FFF" clip-path="url(#aceg)" /><ellipse cx="540" cy="870" rx="405" ry="435" fill="#000" /><ellipse cx="540" cy="870" rx="405" ry="435" fill="#FFF" clip-path="url(#bdfh)" /><ellipse cx="540" cy="870" rx="270" ry="290" fill="#000" /><ellipse cx="540" cy="870" rx="270" ry="290" fill="#FFF" clip-path="url(#aceg)" /><ellipse cx="540" cy="870" rx="135" ry="145" fill="#000" /><ellipse cx="540" cy="870" rx="135" ry="145" fill="#FFF" clip-path="url(#bdfh)" /></svg>
